<svg width="32" height="32" viewBox="0 0 32 32" fill="none" xmlns="http://www.w3.org/2000/svg">
<path d="M23.5345 15.1249L26.3252 12.3342L19.6595 5.66846L16.8688 8.45918L9.50979 1.11798C8.12332 -0.268494 5.86585 -0.268494 4.47938 1.11798L1.10207 4.49529C-0.284405 5.88176 -0.284405 8.13923 1.10207 9.5257L8.44327 16.8669L0 25.328V31.9937H6.66574L15.1268 23.5326L22.468 30.8739C24.1566 32.5625 26.4319 31.9404 27.4984 30.8739L30.8757 27.4965C32.2622 26.1101 32.2622 23.8526 30.8757 22.4661L23.5345 15.1249ZM10.9851 14.3428L3.62616 7.00161L6.9857 3.6243L9.24316 5.88176L7.14567 7.99703L9.65199 10.5033L11.7673 8.38808L14.3447 10.9655L10.9851 14.3428ZM24.9921 28.3675L17.6509 21.0263L21.0282 17.649L23.6056 20.2264L21.4904 22.3417L23.9967 24.848L26.1119 22.7328L28.3694 24.9902L24.9921 28.3675Z" fill="black"/>
<path d="M31.4801 7.17925C32.1733 6.48602 32.1733 5.36617 31.4801 4.67294L27.3207 0.513513C26.4852 -0.321927 25.3298 -0.00197102 24.8143 0.513513L21.5615 3.76639L28.2272 10.4321L31.4801 7.17925Z" fill="black"/>
</svg>
