<svg width="98" height="98" viewBox="0 0 98 98" fill="none" xmlns="http://www.w3.org/2000/svg">
<path d="M12.501 0H84.894C91.769 0 97.394 5.09 97.394 12.5V84.895C97.394 92.305 91.769 97.395 84.894 97.395H12.501C5.624 97.395 0 92.305 0 84.895V12.5C0 5.09 5.624 0 12.501 0ZM70.948 10.821C68.536 10.821 66.565 12.793 66.565 15.206V25.701C66.565 28.113 68.536 30.086 70.948 30.086H81.956C84.368 30.086 86.341 28.113 86.341 25.701V15.206C86.341 12.793 84.368 10.821 81.956 10.821H70.948ZM86.387 41.188H77.815C78.626 43.836 79.065 46.641 79.065 49.543C79.065 65.743 65.509 78.875 48.79 78.875C32.072 78.875 18.518 65.743 18.518 49.543C18.518 46.639 18.956 43.835 19.768 41.188H10.823V82.329C10.823 84.458 12.565 86.201 14.695 86.201H82.517C84.647 86.201 86.389 84.459 86.389 82.329V41.188H86.387ZM48.789 29.533C37.987 29.533 29.229 38.018 29.229 48.486C29.229 58.954 37.987 67.439 48.789 67.439C59.592 67.439 68.351 58.954 68.351 48.486C68.351 38.018 59.593 29.533 48.789 29.533Z" fill="#5C77DE"/>
</svg>
